# Blender v2.82 (sub 7) OBJ File: ''
# www.blender.org
mtllib tactical-cube.mtl
o box_box.mesh
v 2.484357 -2.498266 -2.520154
v 2.484357 -2.498267 2.513145
v 2.484357 2.512663 2.513146
v 2.484357 2.512664 -2.520154
v -2.504213 2.512664 -2.520154
v -2.504213 2.512663 2.513146
v -2.504213 -2.498267 2.513145
v -2.504213 -2.498266 -2.520154
vt 0.000000 0.000000
vt 1.000000 0.000000
vt 1.000000 1.000000
vt 0.000000 1.000000
vt 0.000000 0.000000
vt 1.000000 0.000000
vt 1.000000 1.000000
vt 0.000000 1.000000
vt 0.000000 0.000000
vt 1.000000 0.000000
vt 0.000000 1.000000
vt 0.000000 0.000000
vt 1.000000 1.000000
vt 0.000000 1.000000
vt 1.000000 0.000000
vt 1.000000 1.000000
vt 0.000000 1.000000
vt 0.000000 0.000000
vt 1.000000 0.000000
vt 1.000000 1.000000
vn -1.0000 0.0000 0.0000
vn 1.0000 0.0000 0.0000
vn 0.0000 1.0000 0.0000
vn 0.0000 -1.0000 -0.0000
vn 0.0000 0.0000 -1.0000
vn 0.0000 -0.0000 1.0000
usemtl ac3dmat1
s 1
f 8/1/1 7/2/1 6/3/1 5/4/1
f 1/5/2 4/6/2 3/7/2 2/8/2
f 4/9/3 5/10/3 6/3/3 3/11/3
f 2/12/4 7/2/4 8/13/4 1/14/4
f 1/5/5 8/15/5 5/16/5 4/17/5
f 3/18/6 6/19/6 7/20/6 2/8/6
o box.001_box.mesh.001
v -2.404293 -2.397896 -2.419337
v -2.404293 -2.397897 2.412333
v -2.404293 2.412293 2.412334
v -2.404293 2.412294 -2.419336
v 2.384437 2.412294 -2.419336
v 2.384437 2.412293 2.412334
v 2.384437 -2.397897 2.412333
v 2.384437 -2.397896 -2.419337
vt 0.000000 0.000000
vt 1.000000 0.000000
vt 1.000000 1.000000
vt 0.000000 1.000000
vt 0.000000 0.000000
vt 1.000000 0.000000
vt 1.000000 1.000000
vt 0.000000 1.000000
vt 0.000000 0.000000
vt 1.000000 0.000000
vt 1.000000 1.000000
vt 0.000000 1.000000
vt 0.000000 0.000000
vt 1.000000 0.000000
vt 1.000000 1.000000
vt 0.000000 1.000000
vt 1.000000 0.000000
vt 1.000000 1.000000
vt 0.000000 0.000000
vt 0.000000 1.000000
vn 0.0000 -0.0000 1.0000
vn 0.0000 0.0000 -1.0000
vn 0.0000 -1.0000 -0.0000
vn 0.0000 1.0000 0.0000
vn 1.0000 0.0000 0.0000
vn -1.0000 0.0000 0.0000
usemtl ac3dmat1.001
s 1
f 14/21/7 11/22/7 10/23/7 15/24/7
f 16/25/8 9/26/8 12/27/8 13/28/8
f 15/29/9 10/30/9 9/31/9 16/32/9
f 13/33/10 12/34/10 11/35/10 14/36/10
f 16/25/11 13/37/11 14/38/11 15/24/11
f 9/39/12 10/30/12 11/35/12 12/40/12
o box.002_box.mesh.002
v -2.340276 2.316843 -2.323491
v 2.320425 2.316843 -2.323491
v 2.320425 2.316842 2.316489
v -2.340276 2.316842 2.316489
v -2.340276 -2.302448 2.316488
v 2.320425 -2.302448 2.316488
v 2.320425 -2.302447 -2.323492
v -2.340276 -2.302447 -2.323492
vt 0.000000 0.000000
vt 1.000000 0.000000
vt 1.000000 1.000000
vt 0.000000 1.000000
vt 0.000000 0.000000
vt 1.000000 0.000000
vt 1.000000 1.000000
vt 0.000000 1.000000
vt 0.000000 0.000000
vt 1.000000 0.000000
vt 0.000000 1.000000
vt 0.000000 0.000000
vt 1.000000 1.000000
vt 0.000000 1.000000
vt 1.000000 0.000000
vt 1.000000 1.000000
vt 0.000000 1.000000
vt 0.000000 0.000000
vt 1.000000 0.000000
vt 1.000000 1.000000
vn 0.0000 -1.0000 -0.0000
vn 0.0000 1.0000 0.0000
vn 0.0000 -0.0000 1.0000
vn 0.0000 0.0000 -1.0000
vn -1.0000 0.0000 0.0000
vn 1.0000 -0.0000 0.0000
usemtl ac3dmat1.001
s 1
f 24/41/13 23/42/13 22/43/13 21/44/13
f 17/45/14 20/46/14 19/47/14 18/48/14
f 20/49/15 21/50/15 22/43/15 19/51/15
f 18/52/16 23/42/16 24/53/16 17/54/16
f 17/45/17 24/55/17 21/56/17 20/57/17
f 19/58/18 22/59/18 23/60/18 18/48/18
o box.003_box.mesh.003
v -2.303458 -2.265954 -2.286840
v 2.283612 -2.265954 -2.286840
v 2.283612 -2.265955 2.279840
v -2.303458 -2.265955 2.279840
v -2.303458 2.280345 2.279841
v 2.283612 2.280345 2.279841
v 2.283612 2.280346 -2.286839
v -2.303458 2.280346 -2.286839
vt 0.000000 0.000000
vt 1.000000 0.000000
vt 1.000000 1.000000
vt 0.000000 1.000000
vt 0.000000 0.000000
vt 1.000000 0.000000
vt 1.000000 1.000000
vt 0.000000 1.000000
vt 0.000000 0.000000
vt 1.000000 0.000000
vt 1.000000 1.000000
vt 0.000000 1.000000
vt 0.000000 0.000000
vt 1.000000 0.000000
vt 1.000000 1.000000
vt 0.000000 1.000000
vt 1.000000 0.000000
vt 1.000000 1.000000
vt 0.000000 0.000000
vt 0.000000 1.000000
vn 1.0000 -0.0000 0.0000
vn -1.0000 0.0000 0.0000
vn 0.0000 0.0000 -1.0000
vn 0.0000 -0.0000 1.0000
vn 0.0000 1.0000 0.0000
vn 0.0000 -1.0000 -0.0000
usemtl ac3dmat1.002
s 1
f 30/61/19 27/62/19 26/63/19 31/64/19
f 32/65/20 25/66/20 28/67/20 29/68/20
f 31/69/21 26/70/21 25/71/21 32/72/21
f 29/73/22 28/74/22 27/75/22 30/76/22
f 32/65/23 29/77/23 30/78/23 31/64/23
f 25/79/24 26/70/24 27/75/24 28/80/24
